<svg width="50" height="50" viewBox="0 0 50 50" fill="none" xmlns="http://www.w3.org/2000/svg">
<path d="M24.9909 32.3131C29.0345 32.3131 32.3126 29.035 32.3126 24.9914C32.3126 20.9477 29.0345 17.6697 24.9909 17.6697C20.9472 17.6697 17.6692 20.9477 17.6692 24.9914C17.6692 29.035 20.9472 32.3131 24.9909 32.3131Z" fill="#F34F51"/>
<path d="M23.0467 39.4924C29.5143 40.5762 33.3234 38.9069 33.3853 38.8798L34.648 41.5224C34.4192 41.6326 31.7737 42.8524 27.2276 42.8524C24.0116 42.8524 19.8337 42.2167 14.8982 40.1598C12.6736 39.2328 9.93425 39.9759 8.84098 42.1236C8.83366 42.1382 8.16406 43.4773 8.16406 43.4773L14.7121 46.7521C19.4155 49.103 23.4724 49.9986 26.9931 50.0001C31.3433 50.0001 34.8769 48.7818 37.8112 47.7707C40.4124 46.8727 42.0644 46.07 43.433 46.7521L44.7429 47.407L49.9825 36.9293C49.164 36.5662 46.2421 34.5386 40.9162 33.2727C34.2997 31.6909 27.3305 34.1364 23.0467 39.4924Z" fill="black"/>
<path d="M41.141 7.8762C41.1484 7.86175 41.818 6.52266 41.818 6.52266L35.2699 3.15028C30.5665 0.799335 26.5096 0.00146434 22.9889 0C18.6387 0 15.1052 1.21833 12.1708 2.22941C9.56956 3.12744 7.91759 3.83247 6.54902 3.15038L5.23912 2.49543L-0.000488281 13.0708C0.81798 13.4339 3.83755 15.4613 9.16345 16.7274C15.7798 18.3091 22.6514 15.8636 26.9352 10.5076C20.4676 9.42381 16.6585 11.0931 16.5966 11.1202L15.3339 8.47756C15.5627 8.36744 18.2082 7.14764 22.7543 7.14764C25.9703 7.14764 30.1482 7.78307 35.0837 9.83998C37.3084 10.7672 40.0478 10.0241 41.141 7.8762Z" fill="black"/>
</svg>
