<svg width="50" height="30" viewBox="0 0 50 30" fill="none" xmlns="http://www.w3.org/2000/svg">
<path fill-rule="evenodd" clip-rule="evenodd" d="M35.6443 0.294495C39.9793 1.30043 41.6376 3.8353 43.7166 7.32422H35.6443V0.294495ZM10.3101 7.61719C11.1589 7.61719 11.775 8.02689 11.775 8.98438C11.775 9.79195 11.1215 10.4469 10.3143 10.4492H1.4646C0.655502 10.4492 -0.000244141 11.1053 -0.000244141 11.9141C-0.000244141 12.7232 0.655502 13.3789 1.4646 13.3789H14.6482C15.4649 13.3789 16.1188 14.0343 16.1188 14.8438C16.1188 15.6528 15.463 16.3086 14.6539 16.3086H1.4646C0.655502 16.3086 -0.000244141 16.9643 -0.000244141 17.7734C-0.000244141 18.5825 0.655502 19.2383 1.4646 19.2383H4.68726V23.6328C4.68726 24.4419 5.343 25.0977 6.1521 25.0977H9.09666C9.62157 27.6833 11.9062 29.5898 14.5994 29.5898C17.2925 29.5898 19.5772 27.6833 20.1021 25.0977H34.9756C35.5005 27.6833 37.7851 29.5898 40.4783 29.5898C43.1714 29.5898 45.4561 27.6833 45.981 25.0977H48.5349C49.344 25.0977 49.9998 24.4419 49.9998 23.6328V14.8438C49.9998 10.5457 45.4664 10.2604 45.4622 10.2539H34.1794C33.3703 10.2539 32.7146 9.59816 32.7146 8.78906V0H6.1521C5.343 0 4.68726 0.655746 4.68726 1.46484V4.6875H2.92944C2.12035 4.6875 1.4646 5.34325 1.4646 6.15234C1.4646 6.96144 2.12035 7.61719 2.92944 7.61719H10.3101ZM42.3772 22.0757C43.4259 23.1243 43.4259 24.8253 42.3772 25.8739C40.6904 27.5608 37.7927 26.3607 37.7927 23.9746C37.7927 21.5889 40.6904 20.3888 42.3772 22.0757ZM16.4983 22.0757C17.547 23.1243 17.547 24.8253 16.4983 25.8739C14.8115 27.5608 11.9138 26.3607 11.9138 23.9746C11.9138 21.5889 14.8115 20.3888 16.4983 22.0757Z" fill="black"/>
<path d="M35.4998 7.34375V0.34375C38.4998 0.34375 43.4998 4.84375 43.4998 7.34375H35.4998Z" fill="#F34F51"/>
</svg>
