<svg width="50" height="50" viewBox="0 0 50 50" fill="none" xmlns="http://www.w3.org/2000/svg">
<path d="M48.0602 23.726L26.6646 2.33044C25.1842 0.850036 23.1357 0 21.0405 0H4.54549C2.0397 0 0 2.03853 0 4.54549V21.0394C0 23.1623 0.827877 25.161 2.33043 26.6646L23.726 48.0602C24.9778 49.3109 26.6424 50 28.409 50C30.1757 50 31.8403 49.3108 33.0921 48.0602L48.0601 33.0922C49.3119 31.8426 49.9999 30.1791 49.9999 28.4091C49.9999 26.6392 49.312 24.9755 48.0602 23.726ZM12.3048 13.9122L9.89436 16.3231C9.67245 16.545 9.38161 16.656 9.09088 16.656C8.80015 16.656 8.50942 16.545 8.2874 16.3231C7.84347 15.8791 7.84347 15.16 8.2874 14.7162L11.5 11.503C11.5 11.503 11.5006 11.502 11.5011 11.5013C11.5016 11.5008 11.5022 11.5008 11.5022 11.5008L14.7148 8.28761C15.141 7.86148 15.8955 7.86148 16.3217 8.28761L19.5355 11.5014C19.9794 11.9454 19.9794 12.6645 19.5355 13.1083C19.0916 13.5522 18.3725 13.5522 17.9286 13.1083L15.5183 10.6979L13.9114 12.3051L15.5183 13.9128C15.9622 14.3568 15.9622 15.0759 15.5183 15.5197C15.2964 15.7416 15.0055 15.8526 14.7148 15.8526C14.4241 15.8526 14.1334 15.7416 13.9113 15.5197L12.3048 13.9122ZM18.7322 26.2984C18.4415 26.2984 18.1508 26.1874 17.9287 25.9655C17.4848 25.5215 17.4848 24.8014 17.9287 24.3586L19.5378 22.7506C19.9795 22.3078 19.9795 21.5865 19.5378 21.1426L18.7321 20.3403L16.3218 22.7506C15.8779 23.1945 15.1587 23.1945 14.7149 22.7506C14.271 22.3067 14.271 21.5876 14.7149 21.1437L17.8999 17.961C17.9087 17.9499 17.9177 17.9399 17.9287 17.9299C17.9376 17.9199 17.9488 17.9099 17.9598 17.9L21.1448 14.7162C21.5887 14.2723 22.3078 14.2723 22.7516 14.7162L24.3585 16.3231C25.6879 17.6525 25.6879 19.8143 24.3585 21.1437C23.7592 21.743 22.9758 22.0925 22.1346 22.1369C22.0902 22.946 21.7595 23.7417 21.1447 24.3575L19.5356 25.9656C19.3138 26.1874 19.023 26.2984 18.7322 26.2984ZM25.9655 30.7861C26.4094 31.2301 26.4094 31.9492 25.9655 32.393C25.7436 32.6149 25.4527 32.7259 25.162 32.7259C24.8713 32.7259 24.5805 32.6149 24.3585 32.393L21.1447 29.1792C20.7008 28.7352 20.7008 28.0161 21.1447 27.5723L27.5722 21.1436C27.7853 20.9306 28.0738 20.8107 28.3757 20.8107C28.6776 20.8107 28.9661 20.9306 29.1792 21.1436L32.393 24.3585C32.8369 24.8024 32.8369 25.5215 32.393 25.9654C31.9491 26.4093 31.23 26.4093 30.7861 25.9654L28.3758 23.554L26.7685 25.1616L28.3758 26.7688C28.8197 27.2128 28.8197 27.9319 28.3758 28.3757C28.1539 28.5976 27.8631 28.7086 27.5723 28.7086C27.2816 28.7086 26.9909 28.5976 26.7688 28.3757L25.1618 26.7686L23.555 28.3757L25.9655 30.7861ZM38.8206 32.393C38.3767 32.8369 37.6576 32.8369 37.2138 32.393L34.8034 29.9827L33.1966 31.5895L34.8034 33.1964C35.2474 33.6403 35.2474 34.3594 34.8034 34.8032C34.5815 35.0251 34.2907 35.1361 34 35.1361C33.7092 35.1361 33.4185 35.0251 33.1965 34.8032L31.5896 33.1964L29.9828 34.8032L32.3931 37.2146C32.837 37.6586 32.837 38.3777 32.3931 38.8215C32.1712 39.0434 31.8803 39.1544 31.5896 39.1544C31.2989 39.1544 31.0082 39.0434 30.7861 38.8215L27.5723 35.6066C27.1284 35.1627 27.1284 34.4436 27.5723 33.9997L33.9998 27.5722C34.4438 27.1283 35.1629 27.1283 35.6067 27.5722L38.8205 30.786C39.2645 31.2301 39.2645 31.9492 38.8206 32.393Z" fill="black"/>
<path d="M21.9459 19.8697H21.9482C22.2522 19.8697 22.5363 19.7509 22.7516 19.5367C23.1956 19.094 23.1956 18.3726 22.7516 17.9299L21.9482 17.1264L20.3413 18.7333L21.1448 19.5356C21.36 19.752 21.6441 19.8697 21.9459 19.8697Z" fill="black"/>
<rect x="21.551" y="13" width="8" height="12" transform="rotate(45.4461 21.551 13)" fill="black"/>
<path d="M18.1459 21.0851L15.6043 23.5075C15.5052 23.4564 15.3631 23.3604 15.1781 23.2192C14.9996 23.085 14.8344 22.9382 14.6825 22.7788C14.5305 22.6194 14.4127 22.4604 14.3291 22.302C14.2433 22.159 14.2004 22.008 14.2006 21.8491C14.2073 21.6972 14.2615 21.5331 14.363 21.3569C14.4646 21.1808 14.6301 20.9833 14.8595 20.7646L21.0942 14.8223C21.2795 14.6457 21.457 14.5492 21.6268 14.5329C21.812 14.5152 22.0015 14.5462 22.1954 14.6259C22.5259 14.7607 22.8619 14.963 23.2033 15.2329C23.5536 15.4943 23.8972 15.8018 24.2341 16.1554C25.1459 17.1119 25.5771 18.0768 25.5277 19.0498C25.4783 20.0229 25.0168 20.9258 24.1432 21.7584C23.596 22.2799 23.0226 22.6148 22.4229 22.7631C21.8232 22.9113 21.2721 22.9339 20.7696 22.8308C20.5751 23.4924 20.4037 24.1254 20.2554 24.7297C20.1072 25.334 19.9447 25.8526 19.768 26.2857C19.3931 26.5107 19.0326 26.6096 18.6865 26.5822C18.3559 26.5534 18.0816 26.4246 17.8636 26.1959C17.7182 26.0434 17.6147 25.8906 17.5532 25.7377C17.4916 25.5847 17.4609 25.4288 17.461 25.2699C17.4611 25.111 17.4855 24.9423 17.5342 24.7636C17.5828 24.5849 17.6436 24.4013 17.7165 24.2128L18.6711 21.6362L18.1459 21.0851ZM20.5307 20.0622C20.7818 20.3256 21.0638 20.4536 21.3768 20.4463C21.6987 20.4306 22.0273 20.2629 22.3626 19.9433C22.698 19.6237 22.8669 19.2973 22.8694 18.9642C22.8873 18.6296 22.7212 18.2786 22.371 17.9113C22.2719 17.8073 22.1882 17.7283 22.12 17.6743C22.0517 17.6204 21.9724 17.5637 21.882 17.5042L19.8965 19.3967L20.5307 20.0622Z" fill="#F34F51"/>
</svg>
