<svg width="50" height="50" viewBox="0 0 50 50" fill="none" xmlns="http://www.w3.org/2000/svg">
<path d="M47.0703 22.168V23.6328C47.0703 25.4449 45.4815 26.87 43.4896 26.4603C41.5371 19.759 35.3505 14.8438 28.0273 14.8438H18.2404C17.8327 14.8438 17.4493 14.6735 17.189 14.3774C15.8058 12.8124 13.813 11.9141 11.7188 11.9141H7.32422C6.37451 11.9141 5.67764 12.8021 5.90088 13.7251L7.38428 19.8348C6.3 20.9678 5.3959 22.2409 4.68633 23.6328C1.75273 23.6328 0 25.7243 0 28.0273V32.3689C0 35.1501 2.15313 36.1654 4.44316 37.7834C5.3501 39.7218 6.61611 41.4369 8.2126 42.8889C8.42861 43.0834 8.78906 43.4939 8.78906 44.0476V47.5022C8.78906 48.8799 9.90918 50 11.2867 50H16.5453C17.9149 50 19.043 49.0732 19.043 47.0703H28.0273C28.0273 49.0732 29.1554 50 30.525 50H35.7836C37.1611 50 38.2812 48.8799 38.2812 47.5023C38.2812 45.2886 38.0305 43.7803 39.5759 42.1951C42.4097 39.2815 44.1406 35.3082 44.1406 30.957C44.1406 30.4603 44.1103 29.9707 44.066 29.4853C44.0936 29.4856 44.1216 29.4937 44.1491 29.4937C47.3588 29.4937 50 26.8829 50 23.6328V22.168C50 20.237 47.0703 20.2291 47.0703 22.168ZM10.2539 28.0273C9.44492 28.0273 8.78906 27.3715 8.78906 26.5625C8.78906 25.7533 9.44492 25.0977 10.2539 25.0977C11.0629 25.0977 11.7188 25.7533 11.7188 26.5625C11.7188 27.3715 11.0629 28.0273 10.2539 28.0273ZM28.0273 23.6328H21.3654C19.4345 23.6328 19.4266 20.7031 21.3654 20.7031H28.0273C29.9583 20.7031 29.9662 23.6328 28.0273 23.6328Z" fill="black"/>
<path d="M26.5625 0C23.331 0 20.7031 2.62783 20.7031 5.85938C20.7031 9.09092 23.331 11.7188 26.5625 11.7188C29.794 11.7188 32.4219 9.09092 32.4219 5.85938C32.4219 2.62783 29.794 0 26.5625 0Z" fill="#F34F51"/>
</svg>
