<svg width="248" height="48" viewBox="0 0 248 48" fill="none" xmlns="http://www.w3.org/2000/svg">
<path d="M16.4887 46C18.5902 46 20.2938 44.2964 20.2938 42.1949C20.2938 40.0934 18.5902 38.3898 16.4887 38.3898C14.3872 38.3898 12.6836 40.0934 12.6836 42.1949C12.6836 44.2964 14.3872 46 16.4887 46Z" fill="white"/>
<path d="M31.7092 46C33.8107 46 35.5143 44.2964 35.5143 42.1949C35.5143 40.0934 33.8107 38.3898 31.7092 38.3898C29.6077 38.3898 27.9041 40.0934 27.9041 42.1949C27.9041 44.2964 29.6077 46 31.7092 46Z" fill="white"/>
<path d="M40.2935 13.4791C40.0525 13.1899 39.6948 13.0224 39.3194 13.0224H9.50769L8.40421 8.8901C8.25708 8.33456 7.7548 7.94897 7.17896 7.94897H1.26837C0.568229 7.94897 0 8.5172 0 9.21734C0 9.91748 0.568229 10.4857 1.26837 10.4857H6.20486L12.7268 34.9119C12.8739 35.4675 13.3762 35.8531 13.952 35.8531H34.2459C34.9461 35.8531 35.5143 35.2848 35.5143 34.5847C35.5143 33.8846 34.9461 33.3163 34.2459 33.3163H14.9262L14.2133 30.6477L36.8461 29.5087C37.4321 29.4783 37.9242 29.0495 38.0307 28.4712L40.5675 14.5191C40.636 14.1462 40.5345 13.7657 40.2935 13.4791ZM29.1725 23.1694H21.5623C20.8621 23.1694 20.2939 22.6012 20.2939 21.901C20.2939 21.2009 20.8621 20.6327 21.5623 20.6327H29.1725C29.8726 20.6327 30.4408 21.2009 30.4408 21.901C30.4408 22.6012 29.8726 23.1694 29.1725 23.1694Z" fill="white"/>
<rect x="20.0913" y="20.4805" width="10.553" height="2.84119" fill="white"/>
<path d="M45.5522 10.9437C45.193 10.6789 44.7405 10.3481 44.6857 10.132C44.7087 9.71361 44.8282 9.30629 45.0348 8.94178C45.3513 8.21526 45.678 7.4624 45.3148 6.83634C44.9516 6.21028 44.1256 6.10883 43.3311 6.0246C42.9193 6.02184 42.5136 5.92501 42.145 5.74151C41.9612 5.37157 41.8647 4.9644 41.8629 4.55132C41.7736 3.75684 41.6813 2.93497 41.0512 2.56765C40.421 2.20032 39.6671 2.52199 38.9407 2.8426C38.5758 3.04907 38.1681 3.1685 37.7495 3.19166C37.5303 3.13283 37.2006 2.68432 36.9377 2.32513C36.4771 1.70416 35.9586 1 35.2098 1C34.4609 1 33.9425 1.70416 33.4848 2.32513C33.219 2.68532 32.8892 3.13687 32.6731 3.19266C32.2548 3.16745 31.8476 3.04817 31.4819 2.8436C30.7513 2.52194 29.9985 2.20132 29.3745 2.56256C28.7505 2.92379 28.646 3.75175 28.5566 4.55127C28.5537 4.96292 28.4573 5.36853 28.2745 5.73742C27.9066 5.9183 27.5025 6.01333 27.0925 6.01542C26.297 6.1047 25.4741 6.19706 25.1078 6.82717C24.7415 7.45727 25.0632 8.21022 25.3839 8.93773C25.5911 9.30344 25.7106 9.71223 25.7329 10.132C25.6741 10.3511 25.2256 10.6819 24.8664 10.9437C24.2454 11.4003 23.5413 11.9198 23.5413 12.6686C23.5413 13.4175 24.2454 13.937 24.8674 14.3936C25.2266 14.6584 25.6792 14.9892 25.734 15.2053C25.7109 15.6237 25.5915 16.031 25.3849 16.3955C25.0683 17.122 24.7416 17.8749 25.1049 18.5009C25.4681 19.127 26.2941 19.2285 27.0885 19.3127C27.5003 19.3154 27.906 19.4123 28.2747 19.5958C28.4585 19.9657 28.555 20.3729 28.5568 20.786C28.6461 21.5805 28.7384 22.4023 29.3685 22.7696C29.9986 23.137 30.7464 22.8062 31.474 22.4896C31.8425 22.2854 32.2525 22.1675 32.6733 22.1446C32.8924 22.2035 33.2222 22.652 33.485 23.0112C33.9426 23.6321 34.4611 24.3363 35.21 24.3363C35.9588 24.3363 36.4772 23.6321 36.9349 23.0112C37.2007 22.651 37.5305 22.1994 37.7466 22.1436C38.1652 22.1673 38.5727 22.2867 38.9378 22.4927C39.6643 22.8093 40.4172 23.134 41.0422 22.7737C41.6672 22.4135 41.7707 21.5845 41.86 20.7891C41.8629 20.3774 41.9594 19.9718 42.1421 19.6029C42.5107 19.4206 42.916 19.3244 43.3272 19.3219C44.1227 19.2326 44.9456 19.1402 45.3119 18.5101C45.6782 17.88 45.3474 17.1322 45.0319 16.4047C44.8253 16.0371 44.7072 15.6265 44.6869 15.2054C44.7457 14.9862 45.1942 14.6554 45.5534 14.3936C46.1744 13.936 46.8796 13.4165 46.8796 12.6687C46.8796 11.9209 46.1742 11.4003 45.5522 10.9437Z" fill="#F34F51"/>
<path d="M32.1658 15.2064C32.0062 15.2064 31.8558 15.1312 31.76 15.0034L29.6292 12.1624V14.699C29.6292 14.9792 29.402 15.2064 29.1218 15.2064C28.8417 15.2064 28.6145 14.9792 28.6145 14.699V10.6404C28.6145 10.3602 28.8417 10.1331 29.1218 10.1331C29.2815 10.1331 29.4319 10.2083 29.5277 10.336L31.6585 13.177V10.6404C31.6585 10.3602 31.8856 10.1331 32.1658 10.1331C32.446 10.1331 32.6732 10.3602 32.6732 10.6404V14.699C32.673 14.9173 32.5332 15.111 32.3262 15.18C32.2745 15.1975 32.2204 15.2064 32.1658 15.2064Z" fill="#FAFAFA"/>
<path d="M36.2244 15.2053H34.1951C33.9149 15.2053 33.6877 14.9781 33.6877 14.6979V10.6393C33.6877 10.3591 33.9149 10.132 34.1951 10.132H36.2244C36.5046 10.132 36.7318 10.3591 36.7318 10.6393C36.7318 10.9195 36.5046 11.1466 36.2244 11.1466H34.7024V14.1906H36.2244C36.5046 14.1906 36.7318 14.4178 36.7318 14.698C36.7318 14.9782 36.5046 15.2053 36.2244 15.2053Z" fill="#FAFAFA"/>
<path d="M36.2244 13.1761H34.1951C33.9149 13.1761 33.6877 12.9489 33.6877 12.6687C33.6877 12.3885 33.9149 12.1614 34.1951 12.1614H36.2244C36.5046 12.1614 36.7318 12.3885 36.7318 12.6687C36.7318 12.9489 36.5046 13.1761 36.2244 13.1761Z" fill="#FAFAFA"/>
<path d="M41.2978 15.2053C41.0792 15.2056 40.8849 15.0658 40.8159 14.8583L40.2832 13.2582L39.7505 14.8583C39.6857 15.0773 39.477 15.2214 39.2492 15.2043C39.0239 15.1958 38.8313 15.0395 38.7764 14.8208L37.7618 10.7622C37.694 10.4901 37.8596 10.2146 38.1316 10.1468C38.4037 10.079 38.6792 10.2446 38.747 10.5166L39.3386 12.8848L39.8022 11.4937C39.9228 11.2278 40.2361 11.11 40.502 11.2306C40.6187 11.2835 40.7122 11.377 40.7652 11.4937L41.2289 12.8848L41.8204 10.5166C41.8882 10.2446 42.1637 10.079 42.4358 10.1468C42.7079 10.2146 42.8735 10.4901 42.8056 10.7622L41.791 14.8208C41.7362 15.0395 41.5435 15.1958 41.3182 15.2043L41.2978 15.2053Z" fill="#FAFAFA"/>
<rect x="58.8796" y="6" width="1" height="35" rx="0.5" fill="white"/>
<path d="M82.5596 40.3C79.7396 40.3 77.5196 39.61 75.8996 38.23C74.2796 36.85 73.4196 34.82 73.3196 32.14C73.2996 31.56 73.2896 30.7 73.2896 29.56C73.2896 28.4 73.2996 27.53 73.3196 26.95C73.4196 24.31 74.2896 22.28 75.9296 20.86C77.5896 19.42 79.7996 18.7 82.5596 18.7C85.3196 18.7 87.5296 19.42 89.1896 20.86C90.8496 22.28 91.7196 24.31 91.7996 26.95C91.8396 28.11 91.8596 28.98 91.8596 29.56C91.8596 30.12 91.8396 30.98 91.7996 32.14C91.6996 34.82 90.8396 36.85 89.2196 38.23C87.5996 39.61 85.3796 40.3 82.5596 40.3ZM82.5596 35.98C83.6596 35.98 84.5296 35.65 85.1696 34.99C85.8296 34.33 86.1796 33.32 86.2196 31.96C86.2596 30.8 86.2796 29.98 86.2796 29.5C86.2796 28.98 86.2596 28.16 86.2196 27.04C86.1796 25.68 85.8296 24.67 85.1696 24.01C84.5096 23.35 83.6396 23.02 82.5596 23.02C81.4796 23.02 80.6096 23.35 79.9496 24.01C79.3096 24.67 78.9596 25.68 78.8996 27.04C78.8796 27.6 78.8696 28.42 78.8696 29.5C78.8696 30.56 78.8796 31.38 78.8996 31.96C78.9596 33.32 79.3096 34.33 79.9496 34.99C80.5896 35.65 81.4596 35.98 82.5596 35.98ZM95.7271 22.15C95.5071 22.15 95.3271 22.08 95.1871 21.94C95.0471 21.8 94.9771 21.62 94.9771 21.4V18.7C94.9771 18.48 95.0471 18.3 95.1871 18.16C95.3271 18.02 95.5071 17.95 95.7271 17.95H99.3271C99.5471 17.95 99.7271 18.02 99.8671 18.16C100.007 18.3 100.077 18.48 100.077 18.7V21.4C100.077 21.62 100.007 21.8 99.8671 21.94C99.7271 22.08 99.5471 22.15 99.3271 22.15H95.7271ZM95.7571 40C95.5371 40 95.3571 39.93 95.2171 39.79C95.0771 39.65 95.0071 39.47 95.0071 39.25V25.15C95.0071 24.93 95.0771 24.75 95.2171 24.61C95.3571 24.47 95.5371 24.4 95.7571 24.4H99.2971C99.5171 24.4 99.6971 24.47 99.8371 24.61C99.9771 24.75 100.047 24.93 100.047 25.15V39.25C100.047 39.45 99.9771 39.63 99.8371 39.79C99.6971 39.93 99.5171 40 99.2971 40H95.7571ZM104.341 40C104.141 40 103.961 39.93 103.801 39.79C103.661 39.63 103.591 39.45 103.591 39.25V19.45C103.591 19.23 103.661 19.05 103.801 18.91C103.961 18.77 104.141 18.7 104.341 18.7H107.821C108.041 18.7 108.221 18.77 108.361 18.91C108.501 19.05 108.571 19.23 108.571 19.45V29.5L112.741 24.91C112.781 24.87 112.851 24.8 112.951 24.7C113.071 24.6 113.191 24.53 113.311 24.49C113.431 24.43 113.571 24.4 113.731 24.4H117.751C117.931 24.4 118.081 24.47 118.201 24.61C118.341 24.73 118.411 24.88 118.411 25.06C118.411 25.28 118.331 25.45 118.171 25.57L112.771 31.39L118.921 38.86C119.081 39.02 119.161 39.17 119.161 39.31C119.161 39.51 119.091 39.68 118.951 39.82C118.831 39.94 118.671 40 118.471 40H114.361C114.101 40 113.901 39.96 113.761 39.88C113.641 39.8 113.491 39.67 113.311 39.49L108.571 33.79V39.25C108.571 39.45 108.501 39.63 108.361 39.79C108.221 39.93 108.041 40 107.821 40H104.341ZM127.817 40.3C125.337 40.3 123.427 39.71 122.087 38.53C120.747 37.35 120.017 35.69 119.897 33.55C119.877 33.29 119.867 32.84 119.867 32.2C119.867 31.56 119.877 31.11 119.897 30.85C120.017 28.73 120.767 27.08 122.147 25.9C123.527 24.7 125.417 24.1 127.817 24.1C130.237 24.1 132.137 24.7 133.517 25.9C134.897 27.08 135.647 28.73 135.767 30.85C135.787 31.11 135.797 31.56 135.797 32.2C135.797 32.84 135.787 33.29 135.767 33.55C135.647 35.69 134.917 37.35 133.577 38.53C132.237 39.71 130.317 40.3 127.817 40.3ZM127.817 36.64C128.697 36.64 129.347 36.38 129.767 35.86C130.187 35.32 130.427 34.5 130.487 33.4C130.507 33.2 130.517 32.8 130.517 32.2C130.517 31.6 130.507 31.2 130.487 31C130.427 29.92 130.177 29.11 129.737 28.57C129.317 28.03 128.677 27.76 127.817 27.76C126.157 27.76 125.277 28.84 125.177 31L125.147 32.2L125.177 33.4C125.217 34.5 125.447 35.32 125.867 35.86C126.307 36.38 126.957 36.64 127.817 36.64ZM140.307 40C140.107 40 139.937 39.94 139.797 39.82C139.677 39.68 139.617 39.51 139.617 39.31V19.72C139.617 19.5 139.677 19.33 139.797 19.21C139.937 19.07 140.107 19 140.307 19H152.697C152.897 19 153.057 19.07 153.177 19.21C153.317 19.33 153.387 19.5 153.387 19.72V20.86C153.387 21.06 153.327 21.23 153.207 21.37C153.087 21.49 152.917 21.55 152.697 21.55H142.497V28.12H152.037C152.237 28.12 152.397 28.19 152.517 28.33C152.657 28.45 152.727 28.62 152.727 28.84V29.95C152.727 30.15 152.657 30.32 152.517 30.46C152.397 30.58 152.237 30.64 152.037 30.64H142.497V37.45H152.937C153.157 37.45 153.327 37.51 153.447 37.63C153.567 37.75 153.627 37.92 153.627 38.14V39.31C153.627 39.51 153.557 39.68 153.417 39.82C153.297 39.94 153.137 40 152.937 40H140.307ZM156.7 40C156.54 40 156.39 39.94 156.25 39.82C156.13 39.7 156.07 39.55 156.07 39.37C156.07 39.19 156.14 39.01 156.28 38.83L161.5 32.02L156.61 25.57C156.47 25.41 156.4 25.23 156.4 25.03C156.4 24.85 156.46 24.7 156.58 24.58C156.7 24.46 156.85 24.4 157.03 24.4H158.56C158.86 24.4 159.12 24.56 159.34 24.88L163.33 30.07L167.32 24.91C167.44 24.75 167.55 24.63 167.65 24.55C167.77 24.45 167.92 24.4 168.1 24.4H169.57C169.75 24.4 169.9 24.46 170.02 24.58C170.14 24.7 170.2 24.85 170.2 25.03C170.2 25.23 170.13 25.41 169.99 25.57L165.04 32.08L170.26 38.83C170.4 39.01 170.47 39.19 170.47 39.37C170.47 39.55 170.41 39.7 170.29 39.82C170.17 39.94 170.02 40 169.84 40H168.25C167.95 40 167.69 39.85 167.47 39.55L163.27 34.06L159.01 39.55C158.89 39.69 158.77 39.8 158.65 39.88C158.55 39.96 158.41 40 158.23 40H156.7ZM174.312 45.7C174.112 45.7 173.942 45.63 173.802 45.49C173.682 45.37 173.622 45.21 173.622 45.01V25.09C173.622 24.89 173.682 24.73 173.802 24.61C173.942 24.47 174.112 24.4 174.312 24.4H175.692C175.892 24.4 176.052 24.47 176.172 24.61C176.312 24.73 176.382 24.89 176.382 25.09V26.41C177.502 24.87 179.142 24.1 181.302 24.1C183.402 24.1 184.972 24.76 186.012 26.08C187.072 27.4 187.642 29.1 187.722 31.18C187.742 31.4 187.752 31.74 187.752 32.2C187.752 32.66 187.742 33 187.722 33.22C187.642 35.28 187.072 36.98 186.012 38.32C184.952 39.64 183.382 40.3 181.302 40.3C179.222 40.3 177.602 39.55 176.442 38.05V45.01C176.442 45.21 176.382 45.37 176.262 45.49C176.142 45.63 175.982 45.7 175.782 45.7H174.312ZM180.672 37.87C182.092 37.87 183.122 37.43 183.762 36.55C184.422 35.67 184.782 34.51 184.842 33.07C184.862 32.87 184.872 32.58 184.872 32.2C184.872 28.42 183.472 26.53 180.672 26.53C179.292 26.53 178.252 26.99 177.552 27.91C176.872 28.81 176.502 29.89 176.442 31.15L176.412 32.29L176.442 33.46C176.482 34.64 176.862 35.67 177.582 36.55C178.302 37.43 179.332 37.87 180.672 37.87ZM192.153 40C191.953 40 191.783 39.94 191.643 39.82C191.523 39.68 191.463 39.51 191.463 39.31V25.12C191.463 24.92 191.523 24.75 191.643 24.61C191.783 24.47 191.953 24.4 192.153 24.4H193.533C193.733 24.4 193.903 24.47 194.043 24.61C194.183 24.75 194.253 24.92 194.253 25.12V26.44C195.073 25.08 196.473 24.4 198.453 24.4H199.623C199.823 24.4 199.983 24.47 200.103 24.61C200.243 24.73 200.313 24.89 200.313 25.09V26.32C200.313 26.52 200.243 26.68 200.103 26.8C199.983 26.92 199.823 26.98 199.623 26.98H197.823C196.743 26.98 195.893 27.3 195.273 27.94C194.653 28.56 194.343 29.41 194.343 30.49V39.31C194.343 39.51 194.273 39.68 194.133 39.82C193.993 39.94 193.823 40 193.623 40H192.153ZM208.806 40.3C206.746 40.3 205.096 39.67 203.856 38.41C202.636 37.13 201.966 35.39 201.846 33.19L201.816 32.17L201.846 31.18C201.986 29.02 202.666 27.3 203.886 26.02C205.126 24.74 206.756 24.1 208.776 24.1C210.996 24.1 212.716 24.81 213.936 26.23C215.156 27.63 215.766 29.53 215.766 31.93V32.44C215.766 32.64 215.696 32.81 215.556 32.95C215.436 33.07 215.276 33.13 215.076 33.13H204.696V33.4C204.756 34.7 205.146 35.81 205.866 36.73C206.606 37.63 207.576 38.08 208.776 38.08C209.696 38.08 210.446 37.9 211.026 37.54C211.626 37.16 212.066 36.77 212.346 36.37C212.526 36.13 212.656 35.99 212.736 35.95C212.836 35.89 213.006 35.86 213.246 35.86H214.716C214.896 35.86 215.046 35.91 215.166 36.01C215.286 36.11 215.346 36.25 215.346 36.43C215.346 36.87 215.066 37.4 214.506 38.02C213.966 38.64 213.196 39.18 212.196 39.64C211.216 40.08 210.086 40.3 208.806 40.3ZM212.916 31.06V30.97C212.916 29.59 212.536 28.47 211.776 27.61C211.036 26.73 210.036 26.29 208.776 26.29C207.516 26.29 206.516 26.73 205.776 27.61C205.056 28.47 204.696 29.59 204.696 30.97V31.06H212.916ZM224.754 40.3C223.354 40.3 222.174 40.08 221.214 39.64C220.274 39.18 219.564 38.66 219.084 38.08C218.624 37.5 218.394 37.02 218.394 36.64C218.394 36.44 218.464 36.29 218.604 36.19C218.764 36.07 218.924 36.01 219.084 36.01H220.434C220.634 36.01 220.814 36.11 220.974 36.31C221.454 36.87 221.974 37.31 222.534 37.63C223.094 37.95 223.844 38.11 224.784 38.11C225.824 38.11 226.664 37.91 227.304 37.51C227.964 37.09 228.294 36.52 228.294 35.8C228.294 35.32 228.154 34.93 227.874 34.63C227.614 34.31 227.154 34.04 226.494 33.82C225.854 33.58 224.894 33.32 223.614 33.04C221.874 32.66 220.634 32.11 219.894 31.39C219.174 30.67 218.814 29.74 218.814 28.6C218.814 27.84 219.034 27.12 219.474 26.44C219.934 25.74 220.594 25.18 221.454 24.76C222.334 24.32 223.384 24.1 224.604 24.1C225.884 24.1 226.974 24.31 227.874 24.73C228.774 25.15 229.444 25.65 229.884 26.23C230.344 26.79 230.574 27.26 230.574 27.64C230.574 27.82 230.504 27.97 230.364 28.09C230.244 28.21 230.094 28.27 229.914 28.27H228.654C228.414 28.27 228.214 28.17 228.054 27.97C227.734 27.59 227.454 27.3 227.214 27.1C226.994 26.88 226.664 26.69 226.224 26.53C225.804 26.37 225.264 26.29 224.604 26.29C223.644 26.29 222.904 26.5 222.384 26.92C221.864 27.32 221.604 27.85 221.604 28.51C221.604 28.93 221.714 29.29 221.934 29.59C222.154 29.87 222.574 30.13 223.194 30.37C223.834 30.61 224.754 30.86 225.954 31.12C227.854 31.52 229.194 32.1 229.974 32.86C230.774 33.6 231.174 34.55 231.174 35.71C231.174 36.57 230.924 37.35 230.424 38.05C229.924 38.75 229.184 39.3 228.204 39.7C227.244 40.1 226.094 40.3 224.754 40.3ZM240.047 40.3C238.647 40.3 237.467 40.08 236.507 39.64C235.567 39.18 234.857 38.66 234.377 38.08C233.917 37.5 233.687 37.02 233.687 36.64C233.687 36.44 233.757 36.29 233.897 36.19C234.057 36.07 234.217 36.01 234.377 36.01H235.727C235.927 36.01 236.107 36.11 236.267 36.31C236.747 36.87 237.267 37.31 237.827 37.63C238.387 37.95 239.137 38.11 240.077 38.11C241.117 38.11 241.957 37.91 242.597 37.51C243.257 37.09 243.587 36.52 243.587 35.8C243.587 35.32 243.447 34.93 243.167 34.63C242.907 34.31 242.447 34.04 241.787 33.82C241.147 33.58 240.187 33.32 238.907 33.04C237.167 32.66 235.927 32.11 235.187 31.39C234.467 30.67 234.107 29.74 234.107 28.6C234.107 27.84 234.327 27.12 234.767 26.44C235.227 25.74 235.887 25.18 236.747 24.76C237.627 24.32 238.677 24.1 239.897 24.1C241.177 24.1 242.267 24.31 243.167 24.73C244.067 25.15 244.737 25.65 245.177 26.23C245.637 26.79 245.867 27.26 245.867 27.64C245.867 27.82 245.797 27.97 245.657 28.09C245.537 28.21 245.387 28.27 245.207 28.27H243.947C243.707 28.27 243.507 28.17 243.347 27.97C243.027 27.59 242.747 27.3 242.507 27.1C242.287 26.88 241.957 26.69 241.517 26.53C241.097 26.37 240.557 26.29 239.897 26.29C238.937 26.29 238.197 26.5 237.677 26.92C237.157 27.32 236.897 27.85 236.897 28.51C236.897 28.93 237.007 29.29 237.227 29.59C237.447 29.87 237.867 30.13 238.487 30.37C239.127 30.61 240.047 30.86 241.247 31.12C243.147 31.52 244.487 32.1 245.267 32.86C246.067 33.6 246.467 34.55 246.467 35.71C246.467 36.57 246.217 37.35 245.717 38.05C245.217 38.75 244.477 39.3 243.497 39.7C242.537 40.1 241.387 40.3 240.047 40.3Z" fill="white"/>
<path d="M72.7796 9C72.713 9 72.6563 8.98 72.6096 8.94C72.5696 8.89333 72.5496 8.83667 72.5496 8.77V8.05C72.5496 7.98333 72.5696 7.93 72.6096 7.89C72.6563 7.84333 72.713 7.82 72.7796 7.82H73.4996C73.5663 7.82 73.623 7.84333 73.6696 7.89C73.7163 7.93 73.7396 7.98333 73.7396 8.05V8.77C73.7396 8.83667 73.7163 8.89333 73.6696 8.94C73.623 8.98 73.5663 9 73.4996 9H72.7796ZM75.2992 9C75.2325 9 75.1758 8.98 75.1292 8.94C75.0892 8.89333 75.0692 8.83667 75.0692 8.77V8.05C75.0692 7.98333 75.0892 7.93 75.1292 7.89C75.1758 7.84333 75.2325 7.82 75.2992 7.82H76.0192C76.0858 7.82 76.1425 7.84333 76.1892 7.89C76.2358 7.93 76.2592 7.98333 76.2592 8.05V8.77C76.2592 8.83667 76.2358 8.89333 76.1892 8.94C76.1425 8.98 76.0858 9 76.0192 9H75.2992ZM77.8187 9C77.752 9 77.6954 8.98 77.6487 8.94C77.6087 8.89333 77.5887 8.83667 77.5887 8.77V8.05C77.5887 7.98333 77.6087 7.93 77.6487 7.89C77.6954 7.84333 77.752 7.82 77.8187 7.82H78.5387C78.6054 7.82 78.662 7.84333 78.7087 7.89C78.7554 7.93 78.7787 7.98333 78.7787 8.05V8.77C78.7787 8.83667 78.7554 8.89333 78.7087 8.94C78.662 8.98 78.6054 9 78.5387 9H77.8187ZM81.6282 9.1C81.3016 9.1 80.9982 9.03333 80.7182 8.9C80.4382 8.76667 80.2149 8.58667 80.0482 8.36C79.8882 8.12667 79.8082 7.87 79.8082 7.59C79.8082 7.15 79.9882 6.79 80.3482 6.51C80.7149 6.22333 81.2082 6.03667 81.8282 5.95L83.3182 5.74V5.45C83.3182 4.77 82.9282 4.43 82.1482 4.43C81.8549 4.43 81.6149 4.49333 81.4282 4.62C81.2416 4.74 81.1016 4.88333 81.0082 5.05C80.9882 5.11 80.9616 5.15333 80.9282 5.18C80.9016 5.20667 80.8616 5.22 80.8082 5.22H80.3782C80.3182 5.22 80.2649 5.2 80.2182 5.16C80.1782 5.11333 80.1582 5.06 80.1582 5C80.1649 4.84 80.2382 4.66 80.3782 4.46C80.5249 4.25333 80.7482 4.07667 81.0482 3.93C81.3482 3.77667 81.7182 3.7 82.1582 3.7C82.9049 3.7 83.4416 3.87667 83.7682 4.23C84.0949 4.57667 84.2582 5.01 84.2582 5.53V8.77C84.2582 8.83667 84.2349 8.89333 84.1882 8.94C84.1482 8.98 84.0949 9 84.0282 9H83.5682C83.5016 9 83.4449 8.98 83.3982 8.94C83.3582 8.89333 83.3382 8.83667 83.3382 8.77V8.34C83.1916 8.55333 82.9782 8.73333 82.6982 8.88C82.4182 9.02667 82.0616 9.1 81.6282 9.1ZM81.8382 8.35C82.2716 8.35 82.6249 8.21 82.8982 7.93C83.1782 7.64333 83.3182 7.23333 83.3182 6.7V6.42L82.1582 6.59C81.6849 6.65667 81.3282 6.77 81.0882 6.93C80.8482 7.08333 80.7282 7.28 80.7282 7.52C80.7282 7.78667 80.8382 7.99333 81.0582 8.14C81.2782 8.28 81.5382 8.35 81.8382 8.35ZM90.717 9.1C89.997 9.1 89.4503 8.85 89.077 8.35V8.77C89.077 8.83667 89.0536 8.89333 89.007 8.94C88.967 8.98 88.9136 9 88.847 9H88.387C88.3203 9 88.2636 8.98 88.217 8.94C88.177 8.89333 88.157 8.83667 88.157 8.77V2.13C88.157 2.06333 88.177 2.01 88.217 1.97C88.2636 1.92333 88.3203 1.9 88.387 1.9H88.877C88.9436 1.9 88.997 1.92333 89.037 1.97C89.077 2.01 89.097 2.06333 89.097 2.13V4.43C89.4903 3.94333 90.0303 3.7 90.717 3.7C91.4103 3.7 91.9336 3.93 92.287 4.39C92.6403 4.84333 92.8303 5.41333 92.857 6.1C92.8636 6.17333 92.867 6.27333 92.867 6.4C92.867 6.52667 92.8636 6.62667 92.857 6.7C92.8303 7.39333 92.6403 7.96667 92.287 8.42C91.9336 8.87333 91.4103 9.1 90.717 9.1ZM90.507 8.29C90.9803 8.29 91.3236 8.14333 91.537 7.85C91.757 7.55667 91.877 7.17 91.897 6.69C91.9036 6.62333 91.907 6.52667 91.907 6.4C91.907 5.14 91.4403 4.51 90.507 4.51C90.0603 4.51 89.717 4.65667 89.477 4.95C89.237 5.24333 89.1103 5.58667 89.097 5.98L89.087 6.37L89.097 6.75C89.117 7.17 89.2403 7.53333 89.467 7.84C89.7003 8.14 90.047 8.29 90.507 8.29ZM96.1742 9.1C95.4876 9.1 94.9376 8.89 94.5242 8.47C94.1176 8.04333 93.8942 7.46333 93.8542 6.73L93.8442 6.39L93.8542 6.06C93.9009 5.34 94.1276 4.76667 94.5342 4.34C94.9476 3.91333 95.4909 3.7 96.1642 3.7C96.9042 3.7 97.4776 3.93667 97.8842 4.41C98.2909 4.87667 98.4942 5.51 98.4942 6.31V6.48C98.4942 6.54667 98.4709 6.60333 98.4242 6.65C98.3842 6.69 98.3309 6.71 98.2642 6.71H94.8042V6.8C94.8242 7.23333 94.9542 7.60333 95.1942 7.91C95.4409 8.21 95.7642 8.36 96.1642 8.36C96.4709 8.36 96.7209 8.3 96.9142 8.18C97.1142 8.05333 97.2609 7.92333 97.3542 7.79C97.4142 7.71 97.4576 7.66333 97.4842 7.65C97.5176 7.63 97.5742 7.62 97.6542 7.62H98.1442C98.2042 7.62 98.2542 7.63667 98.2942 7.67C98.3342 7.70333 98.3542 7.75 98.3542 7.81C98.3542 7.95667 98.2609 8.13333 98.0742 8.34C97.8942 8.54667 97.6376 8.72667 97.3042 8.88C96.9776 9.02667 96.6009 9.1 96.1742 9.1ZM97.5442 6.02V5.99C97.5442 5.53 97.4176 5.15667 97.1642 4.87C96.9176 4.57667 96.5842 4.43 96.1642 4.43C95.7442 4.43 95.4109 4.57667 95.1642 4.87C94.9242 5.15667 94.8042 5.53 94.8042 5.99V6.02H97.5442ZM101.691 9C100.637 9 100.111 8.41333 100.111 7.24V4.6H99.3307C99.264 4.6 99.2073 4.58 99.1607 4.54C99.1207 4.49333 99.1007 4.43667 99.1007 4.37V4.03C99.1007 3.96333 99.1207 3.91 99.1607 3.87C99.2073 3.82333 99.264 3.8 99.3307 3.8H100.111V2.13C100.111 2.06333 100.131 2.01 100.171 1.97C100.217 1.92333 100.274 1.9 100.341 1.9H100.811C100.877 1.9 100.931 1.92333 100.971 1.97C101.017 2.01 101.041 2.06333 101.041 2.13V3.8H102.281C102.347 3.8 102.401 3.82333 102.441 3.87C102.487 3.91 102.511 3.96333 102.511 4.03V4.37C102.511 4.43667 102.487 4.49333 102.441 4.54C102.401 4.58 102.347 4.6 102.281 4.6H101.041V7.17C101.041 7.50333 101.097 7.75667 101.211 7.93C101.324 8.09667 101.511 8.18 101.771 8.18H102.381C102.447 8.18 102.501 8.20333 102.541 8.25C102.587 8.29 102.611 8.34333 102.611 8.41V8.77C102.611 8.83667 102.587 8.89333 102.541 8.94C102.501 8.98 102.447 9 102.381 9H101.691ZM105.597 9C104.544 9 104.017 8.41333 104.017 7.24V4.6H103.237C103.17 4.6 103.114 4.58 103.067 4.54C103.027 4.49333 103.007 4.43667 103.007 4.37V4.03C103.007 3.96333 103.027 3.91 103.067 3.87C103.114 3.82333 103.17 3.8 103.237 3.8H104.017V2.13C104.017 2.06333 104.037 2.01 104.077 1.97C104.124 1.92333 104.18 1.9 104.247 1.9H104.717C104.784 1.9 104.837 1.92333 104.877 1.97C104.924 2.01 104.947 2.06333 104.947 2.13V3.8H106.187C106.254 3.8 106.307 3.82333 106.347 3.87C106.394 3.91 106.417 3.96333 106.417 4.03V4.37C106.417 4.43667 106.394 4.49333 106.347 4.54C106.307 4.58 106.254 4.6 106.187 4.6H104.947V7.17C104.947 7.50333 105.004 7.75667 105.117 7.93C105.23 8.09667 105.417 8.18 105.677 8.18H106.287C106.354 8.18 106.407 8.20333 106.447 8.25C106.494 8.29 106.517 8.34333 106.517 8.41V8.77C106.517 8.83667 106.494 8.89333 106.447 8.94C106.407 8.98 106.354 9 106.287 9H105.597ZM109.553 9.1C108.866 9.1 108.316 8.89 107.903 8.47C107.496 8.04333 107.273 7.46333 107.233 6.73L107.223 6.39L107.233 6.06C107.28 5.34 107.506 4.76667 107.913 4.34C108.326 3.91333 108.87 3.7 109.543 3.7C110.283 3.7 110.856 3.93667 111.263 4.41C111.67 4.87667 111.873 5.51 111.873 6.31V6.48C111.873 6.54667 111.85 6.60333 111.803 6.65C111.763 6.69 111.71 6.71 111.643 6.71H108.183V6.8C108.203 7.23333 108.333 7.60333 108.573 7.91C108.82 8.21 109.143 8.36 109.543 8.36C109.85 8.36 110.1 8.3 110.293 8.18C110.493 8.05333 110.64 7.92333 110.733 7.79C110.793 7.71 110.836 7.66333 110.863 7.65C110.896 7.63 110.953 7.62 111.033 7.62H111.523C111.583 7.62 111.633 7.63667 111.673 7.67C111.713 7.70333 111.733 7.75 111.733 7.81C111.733 7.95667 111.64 8.13333 111.453 8.34C111.273 8.54667 111.016 8.72667 110.683 8.88C110.356 9.02667 109.98 9.1 109.553 9.1ZM110.923 6.02V5.99C110.923 5.53 110.796 5.15667 110.543 4.87C110.296 4.57667 109.963 4.43 109.543 4.43C109.123 4.43 108.79 4.57667 108.543 4.87C108.303 5.15667 108.183 5.53 108.183 5.99V6.02H110.923ZM113.299 9C113.232 9 113.176 8.98 113.129 8.94C113.089 8.89333 113.069 8.83667 113.069 8.77V4.04C113.069 3.97333 113.089 3.91667 113.129 3.87C113.176 3.82333 113.232 3.8 113.299 3.8H113.759C113.826 3.8 113.882 3.82333 113.929 3.87C113.976 3.91667 113.999 3.97333 113.999 4.04V4.48C114.272 4.02667 114.739 3.8 115.399 3.8H115.789C115.856 3.8 115.909 3.82333 115.949 3.87C115.996 3.91 116.019 3.96333 116.019 4.03V4.44C116.019 4.50667 115.996 4.56 115.949 4.6C115.909 4.64 115.856 4.66 115.789 4.66H115.189C114.829 4.66 114.546 4.76667 114.339 4.98C114.132 5.18667 114.029 5.47 114.029 5.83V8.77C114.029 8.83667 114.006 8.89333 113.959 8.94C113.912 8.98 113.856 9 113.789 9H113.299ZM121.164 9.1C120.478 9.1 119.928 8.89 119.514 8.47C119.108 8.04333 118.884 7.46333 118.844 6.73L118.834 6.39L118.844 6.06C118.891 5.34 119.118 4.76667 119.524 4.34C119.938 3.91333 120.481 3.7 121.154 3.7C121.894 3.7 122.468 3.93667 122.874 4.41C123.281 4.87667 123.484 5.51 123.484 6.31V6.48C123.484 6.54667 123.461 6.60333 123.414 6.65C123.374 6.69 123.321 6.71 123.254 6.71H119.794V6.8C119.814 7.23333 119.944 7.60333 120.184 7.91C120.431 8.21 120.754 8.36 121.154 8.36C121.461 8.36 121.711 8.3 121.904 8.18C122.104 8.05333 122.251 7.92333 122.344 7.79C122.404 7.71 122.448 7.66333 122.474 7.65C122.508 7.63 122.564 7.62 122.644 7.62H123.134C123.194 7.62 123.244 7.63667 123.284 7.67C123.324 7.70333 123.344 7.75 123.344 7.81C123.344 7.95667 123.251 8.13333 123.064 8.34C122.884 8.54667 122.628 8.72667 122.294 8.88C121.968 9.02667 121.591 9.1 121.164 9.1ZM122.534 6.02V5.99C122.534 5.53 122.408 5.15667 122.154 4.87C121.908 4.57667 121.574 4.43 121.154 4.43C120.734 4.43 120.401 4.57667 120.154 4.87C119.914 5.15667 119.794 5.53 119.794 5.99V6.02H122.534ZM124.333 9C124.279 9 124.229 8.98 124.183 8.94C124.143 8.9 124.123 8.85 124.123 8.79C124.123 8.73 124.146 8.67 124.193 8.61L125.933 6.34L124.303 4.19C124.256 4.13667 124.233 4.07667 124.233 4.01C124.233 3.95 124.253 3.9 124.293 3.86C124.333 3.82 124.383 3.8 124.443 3.8H124.953C125.053 3.8 125.139 3.85333 125.213 3.96L126.543 5.69L127.873 3.97C127.913 3.91667 127.949 3.87667 127.983 3.85C128.023 3.81667 128.073 3.8 128.133 3.8H128.623C128.683 3.8 128.733 3.82 128.773 3.86C128.813 3.9 128.833 3.95 128.833 4.01C128.833 4.07667 128.809 4.13667 128.763 4.19L127.113 6.36L128.853 8.61C128.899 8.67 128.923 8.73 128.923 8.79C128.923 8.85 128.903 8.9 128.863 8.94C128.823 8.98 128.773 9 128.713 9H128.183C128.083 9 127.996 8.95 127.923 8.85L126.523 7.02L125.103 8.85C125.063 8.89667 125.023 8.93333 124.983 8.96C124.949 8.98667 124.903 9 124.843 9H124.333ZM130.203 10.9C130.137 10.9 130.08 10.8767 130.033 10.83C129.993 10.79 129.973 10.7367 129.973 10.67V4.03C129.973 3.96333 129.993 3.91 130.033 3.87C130.08 3.82333 130.137 3.8 130.203 3.8H130.663C130.73 3.8 130.783 3.82333 130.823 3.87C130.87 3.91 130.893 3.96333 130.893 4.03V4.47C131.267 3.95667 131.813 3.7 132.533 3.7C133.233 3.7 133.757 3.92 134.103 4.36C134.457 4.8 134.647 5.36667 134.673 6.06C134.68 6.13333 134.683 6.24667 134.683 6.4C134.683 6.55333 134.68 6.66667 134.673 6.74C134.647 7.42667 134.457 7.99333 134.103 8.44C133.75 8.88 133.227 9.1 132.533 9.1C131.84 9.1 131.3 8.85 130.913 8.35V10.67C130.913 10.7367 130.893 10.79 130.853 10.83C130.813 10.8767 130.76 10.9 130.693 10.9H130.203ZM132.323 8.29C132.797 8.29 133.14 8.14333 133.353 7.85C133.573 7.55667 133.693 7.17 133.713 6.69C133.72 6.62333 133.723 6.52667 133.723 6.4C133.723 5.14 133.257 4.51 132.323 4.51C131.863 4.51 131.517 4.66333 131.283 4.97C131.057 5.27 130.933 5.63 130.913 6.05L130.903 6.43L130.913 6.82C130.927 7.21333 131.053 7.55667 131.293 7.85C131.533 8.14333 131.877 8.29 132.323 8.29ZM138 9.1C137.314 9.1 136.764 8.89 136.35 8.47C135.944 8.04333 135.72 7.46333 135.68 6.73L135.67 6.39L135.68 6.06C135.727 5.34 135.954 4.76667 136.36 4.34C136.774 3.91333 137.317 3.7 137.99 3.7C138.73 3.7 139.304 3.93667 139.71 4.41C140.117 4.87667 140.32 5.51 140.32 6.31V6.48C140.32 6.54667 140.297 6.60333 140.25 6.65C140.21 6.69 140.157 6.71 140.09 6.71H136.63V6.8C136.65 7.23333 136.78 7.60333 137.02 7.91C137.267 8.21 137.59 8.36 137.99 8.36C138.297 8.36 138.547 8.3 138.74 8.18C138.94 8.05333 139.087 7.92333 139.18 7.79C139.24 7.71 139.284 7.66333 139.31 7.65C139.344 7.63 139.4 7.62 139.48 7.62H139.97C140.03 7.62 140.08 7.63667 140.12 7.67C140.16 7.70333 140.18 7.75 140.18 7.81C140.18 7.95667 140.087 8.13333 139.9 8.34C139.72 8.54667 139.464 8.72667 139.13 8.88C138.804 9.02667 138.427 9.1 138 9.1ZM139.37 6.02V5.99C139.37 5.53 139.244 5.15667 138.99 4.87C138.744 4.57667 138.41 4.43 137.99 4.43C137.57 4.43 137.237 4.57667 136.99 4.87C136.75 5.15667 136.63 5.53 136.63 5.99V6.02H139.37ZM141.746 9C141.679 9 141.623 8.98 141.576 8.94C141.536 8.89333 141.516 8.83667 141.516 8.77V4.04C141.516 3.97333 141.536 3.91667 141.576 3.87C141.623 3.82333 141.679 3.8 141.746 3.8H142.206C142.273 3.8 142.329 3.82333 142.376 3.87C142.423 3.91667 142.446 3.97333 142.446 4.04V4.48C142.719 4.02667 143.186 3.8 143.846 3.8H144.236C144.303 3.8 144.356 3.82333 144.396 3.87C144.443 3.91 144.466 3.96333 144.466 4.03V4.44C144.466 4.50667 144.443 4.56 144.396 4.6C144.356 4.64 144.303 4.66 144.236 4.66H143.636C143.276 4.66 142.993 4.76667 142.786 4.98C142.579 5.18667 142.476 5.47 142.476 5.83V8.77C142.476 8.83667 142.453 8.89333 142.406 8.94C142.359 8.98 142.303 9 142.236 9H141.746ZM145.465 2.83C145.398 2.83 145.342 2.81 145.295 2.77C145.255 2.72333 145.235 2.66667 145.235 2.6V2.06C145.235 1.99333 145.255 1.93667 145.295 1.89C145.342 1.84333 145.398 1.82 145.465 1.82H146.095C146.162 1.82 146.218 1.84333 146.265 1.89C146.312 1.93667 146.335 1.99333 146.335 2.06V2.6C146.335 2.66667 146.312 2.72333 146.265 2.77C146.218 2.81 146.162 2.83 146.095 2.83H145.465ZM145.545 9C145.478 9 145.422 8.98 145.375 8.94C145.335 8.89333 145.315 8.83667 145.315 8.77V4.03C145.315 3.96333 145.335 3.91 145.375 3.87C145.422 3.82333 145.478 3.8 145.545 3.8H146.025C146.092 3.8 146.145 3.82333 146.185 3.87C146.232 3.91 146.255 3.96333 146.255 4.03V8.77C146.255 8.83667 146.232 8.89333 146.185 8.94C146.145 8.98 146.092 9 146.025 9H145.545ZM149.817 9.1C149.13 9.1 148.58 8.89 148.167 8.47C147.76 8.04333 147.537 7.46333 147.497 6.73L147.487 6.39L147.497 6.06C147.543 5.34 147.77 4.76667 148.177 4.34C148.59 3.91333 149.133 3.7 149.807 3.7C150.547 3.7 151.12 3.93667 151.527 4.41C151.933 4.87667 152.137 5.51 152.137 6.31V6.48C152.137 6.54667 152.113 6.60333 152.067 6.65C152.027 6.69 151.973 6.71 151.907 6.71H148.447V6.8C148.467 7.23333 148.597 7.60333 148.837 7.91C149.083 8.21 149.407 8.36 149.807 8.36C150.113 8.36 150.363 8.3 150.557 8.18C150.757 8.05333 150.903 7.92333 150.997 7.79C151.057 7.71 151.1 7.66333 151.127 7.65C151.16 7.63 151.217 7.62 151.297 7.62H151.787C151.847 7.62 151.897 7.63667 151.937 7.67C151.977 7.70333 151.997 7.75 151.997 7.81C151.997 7.95667 151.903 8.13333 151.717 8.34C151.537 8.54667 151.28 8.72667 150.947 8.88C150.62 9.02667 150.243 9.1 149.817 9.1ZM151.187 6.02V5.99C151.187 5.53 151.06 5.15667 150.807 4.87C150.56 4.57667 150.227 4.43 149.807 4.43C149.387 4.43 149.053 4.57667 148.807 4.87C148.567 5.15667 148.447 5.53 148.447 5.99V6.02H151.187ZM153.563 9C153.496 9 153.439 8.98 153.393 8.94C153.353 8.89333 153.333 8.83667 153.333 8.77V4.03C153.333 3.96333 153.353 3.91 153.393 3.87C153.439 3.82333 153.496 3.8 153.563 3.8H154.033C154.099 3.8 154.153 3.82333 154.193 3.87C154.239 3.91 154.263 3.96333 154.263 4.03V4.47C154.456 4.22333 154.683 4.03333 154.943 3.9C155.209 3.76667 155.539 3.7 155.933 3.7C156.573 3.7 157.069 3.90667 157.423 4.32C157.783 4.72667 157.963 5.27 157.963 5.95V8.77C157.963 8.83667 157.939 8.89333 157.893 8.94C157.853 8.98 157.799 9 157.733 9H157.233C157.166 9 157.109 8.98 157.063 8.94C157.023 8.89333 157.003 8.83667 157.003 8.77V6C157.003 5.52667 156.886 5.16 156.653 4.9C156.426 4.64 156.096 4.51 155.663 4.51C155.243 4.51 154.909 4.64333 154.663 4.91C154.416 5.17 154.293 5.53333 154.293 6V8.77C154.293 8.83667 154.269 8.89333 154.223 8.94C154.183 8.98 154.129 9 154.063 9H153.563ZM161.497 9.1C160.784 9.1 160.224 8.9 159.817 8.5C159.417 8.09333 159.204 7.52667 159.177 6.8L159.167 6.4L159.177 6C159.204 5.27333 159.417 4.71 159.817 4.31C160.224 3.90333 160.784 3.7 161.497 3.7C161.977 3.7 162.384 3.78667 162.717 3.96C163.05 4.13333 163.297 4.34667 163.457 4.6C163.624 4.85333 163.714 5.10667 163.727 5.36C163.734 5.42667 163.714 5.48 163.667 5.52C163.62 5.56 163.564 5.58 163.497 5.58H163.017C162.95 5.58 162.9 5.56667 162.867 5.54C162.834 5.51333 162.8 5.46 162.767 5.38C162.654 5.06 162.494 4.83333 162.287 4.7C162.08 4.56 161.82 4.49 161.507 4.49C161.094 4.49 160.764 4.62 160.517 4.88C160.277 5.13333 160.147 5.52333 160.127 6.05L160.117 6.41L160.127 6.75C160.147 7.28333 160.277 7.67667 160.517 7.93C160.757 8.18333 161.087 8.31 161.507 8.31C161.82 8.31 162.08 8.24333 162.287 8.11C162.494 7.97 162.654 7.74 162.767 7.42C162.8 7.34 162.834 7.28667 162.867 7.26C162.9 7.22667 162.95 7.21 163.017 7.21H163.497C163.564 7.21 163.62 7.23333 163.667 7.28C163.714 7.32 163.734 7.37333 163.727 7.44C163.714 7.68667 163.624 7.94 163.457 8.2C163.297 8.45333 163.05 8.66667 162.717 8.84C162.39 9.01333 161.984 9.1 161.497 9.1ZM166.995 9.1C166.308 9.1 165.758 8.89 165.345 8.47C164.938 8.04333 164.715 7.46333 164.675 6.73L164.665 6.39L164.675 6.06C164.721 5.34 164.948 4.76667 165.355 4.34C165.768 3.91333 166.311 3.7 166.985 3.7C167.725 3.7 168.298 3.93667 168.705 4.41C169.111 4.87667 169.315 5.51 169.315 6.31V6.48C169.315 6.54667 169.291 6.60333 169.245 6.65C169.205 6.69 169.151 6.71 169.085 6.71H165.625V6.8C165.645 7.23333 165.775 7.60333 166.015 7.91C166.261 8.21 166.585 8.36 166.985 8.36C167.291 8.36 167.541 8.3 167.735 8.18C167.935 8.05333 168.081 7.92333 168.175 7.79C168.235 7.71 168.278 7.66333 168.305 7.65C168.338 7.63 168.395 7.62 168.475 7.62H168.965C169.025 7.62 169.075 7.63667 169.115 7.67C169.155 7.70333 169.175 7.75 169.175 7.81C169.175 7.95667 169.081 8.13333 168.895 8.34C168.715 8.54667 168.458 8.72667 168.125 8.88C167.798 9.02667 167.421 9.1 166.995 9.1ZM168.365 6.02V5.99C168.365 5.53 168.238 5.15667 167.985 4.87C167.738 4.57667 167.405 4.43 166.985 4.43C166.565 4.43 166.231 4.57667 165.985 4.87C165.745 5.15667 165.625 5.53 165.625 5.99V6.02H168.365ZM170.76 7.34C170.694 7.34 170.637 7.32 170.59 7.28C170.55 7.23333 170.53 7.17667 170.53 7.11V2.23C170.53 2.16333 170.55 2.11 170.59 2.07C170.637 2.02333 170.694 2 170.76 2H171.23C171.297 2 171.35 2.02333 171.39 2.07C171.437 2.11 171.46 2.16333 171.46 2.23V7.11C171.46 7.17667 171.437 7.23333 171.39 7.28C171.35 7.32 171.297 7.34 171.23 7.34H170.76ZM170.67 9C170.604 9 170.547 8.98 170.5 8.94C170.46 8.89333 170.44 8.83667 170.44 8.77V8.14C170.44 8.07333 170.46 8.01667 170.5 7.97C170.547 7.92333 170.604 7.9 170.67 7.9H171.31C171.377 7.9 171.43 7.92333 171.47 7.97C171.517 8.01667 171.54 8.07333 171.54 8.14V8.77C171.54 8.83667 171.517 8.89333 171.47 8.94C171.43 8.98 171.377 9 171.31 9H170.67Z" fill="#F34F51"/>
</svg>
