<svg width="19" height="12" viewBox="0 0 19 12" fill="none" xmlns="http://www.w3.org/2000/svg">
<path d="M17.8874 0.857422L12.7114 6.00006L17.8874 11.1427C17.981 10.9471 18.0377 10.7309 18.0377 10.5001V1.50006C18.0377 1.26916 17.981 1.05299 17.8874 0.857422Z" fill="#A8A8A8"/>
<path d="M16.5379 0H2.47125C2.24035 0 2.02418 0.0567667 1.82861 0.150333L8.44405 6.73243C9.02898 7.31737 9.98018 7.31737 10.5651 6.73243L17.1805 0.150333C16.985 0.0567667 16.7688 0 16.5379 0Z" fill="#A8A8A8"/>
<path d="M1.12152 0.857422C1.02796 1.05299 0.971191 1.26916 0.971191 1.50006V10.5001C0.971191 10.731 1.02796 10.9472 1.12152 11.1427L6.29749 6.00006L1.12152 0.857422Z" fill="#A8A8A8"/>
<path d="M12.0046 6.70703L11.2721 7.43946C10.2975 8.4141 8.71161 8.4141 7.73698 7.43946L7.00458 6.70703L1.82861 11.8497C2.02418 11.9432 2.24035 12 2.47125 12H16.5379C16.7688 12 16.985 11.9432 17.1805 11.8497L12.0046 6.70703Z" fill="#A8A8A8"/>
</svg>
