<svg fill="none" height="35" viewBox="0 0 41 35" width="41" xmlns="http://www.w3.org/2000/svg"><g fill="#F34F51"><path d="m16 4.5v-4c0-.4-.6667-.5-1-.5h-5c-6.8.4-9.5 7.16667-10 10.5v20.5c0 2.8 3 3.8333 4.5 4h11.5c2 0 2.8333-2.6667 3-4v-12c0-2.4-2.6667-3-4-3h-6.5c-1.6 0-2-1.3333-2-2v-3c0-2.8 3.33333-4.5 5-5h3.5c.8 0 1-1 1-1.5z"/><path d="m38 4.5v-4c0-.4-.6667-.5-1-.5h-5c-6.8.4-9.5 7.16667-10 10.5v20.5c0 2.8 3 3.8333 4.5 4h11.5c2 0 2.8333-2.6667 3-4v-12c0-2.4-2.6667-3-4-3h-6.5c-1.6 0-2-1.3333-2-2v-3c0-2.8 3.3333-4.5 5-5h3.5c.8 0 1-1 1-1.5z"/></g></svg>