<svg width="10" height="12" viewBox="0 0 10 12" fill="none" xmlns="http://www.w3.org/2000/svg">
<path d="M8.24698 5.36842H2.9114V3C2.9114 1.86818 3.85431 0.947368 5.0133 0.947368C6.17228 0.947368 7.11519 1.86818 7.11519 3V3.94737C7.11519 4.20897 7.33237 4.42105 7.60024 4.42105C7.86812 4.42105 8.0853 4.20897 8.0853 3.94737V3C8.0853 1.3458 6.7072 0 5.0133 0C3.3194 0 1.9413 1.3458 1.9413 3V5.36842H1.77961C1.33314 5.36842 0.971191 5.72188 0.971191 6.15789V11.2105C0.971191 11.6465 1.33314 12 1.77961 12H8.24698C8.69346 12 9.0554 11.6465 9.0554 11.2105V6.15789C9.0554 5.72188 8.69346 5.36842 8.24698 5.36842ZM4.04319 8.05263C4.04319 7.5294 4.47751 7.10526 5.0133 7.10526C5.54905 7.10526 5.9834 7.5294 5.9834 8.05263C5.9834 8.40325 5.78825 8.70913 5.49835 8.87296V10.2632H4.52824V8.87296C4.23834 8.70913 4.04319 8.40325 4.04319 8.05263Z" fill="#A8A8A8"/>
</svg>
