<svg width="13" height="12" viewBox="0 0 13 12" fill="none" xmlns="http://www.w3.org/2000/svg">
<path d="M12.3045 8.33334C11.4745 8.33334 10.6712 8.2 9.92453 7.95334C9.69454 7.88 9.43119 7.93334 9.24788 8.11669L7.78122 9.58669C5.89122 8.62669 4.34788 7.08334 3.38788 5.19669L4.85454 3.72334C5.03788 3.54 5.09119 3.27669 5.01788 3.04669C4.77122 2.30003 4.63788 1.49669 4.63788 0.666687C4.63785 0.296656 4.34119 0 3.97119 0H1.63785C1.27119 0 0.971191 0.296656 0.971191 0.666656C0.971191 6.92666 6.04453 12 12.3045 12C12.6745 12 12.9712 11.7033 12.9712 11.3333V9C12.9712 8.63 12.6745 8.33334 12.3045 8.33334Z" fill="#A8A8A8"/>
</svg>
