<svg width="177" height="27" viewBox="0 0 177 27" fill="none" xmlns="http://www.w3.org/2000/svg">
<path d="M13.05 27C9.05 27 5.9 25.9167 3.6 23.75C1.3 21.5833 0.1 18.4333 0 14.3V12.55C0.133333 8.61667 1.35 5.55 3.65 3.35C5.98333 1.11667 9.1 0 13 0C15.8333 0 18.2167 0.583333 20.15 1.75C22.1167 2.88333 23.5833 4.45 24.55 6.45C25.55 8.45 26.05 10.75 26.05 13.35V14.55C26.05 14.8833 25.9333 15.1833 25.7 15.45C25.4667 15.6833 25.1667 15.8 24.8 15.8H8.8V16.15C8.86667 17.7167 9.25 18.9833 9.95 19.95C10.65 20.9167 11.6667 21.4 13 21.4C13.8333 21.4 14.5167 21.2333 15.05 20.9C15.5833 20.5333 16.0667 20.1 16.5 19.6C16.8 19.2333 17.0333 19.0167 17.2 18.95C17.4 18.85 17.7 18.8 18.1 18.8H24.3C24.6 18.8 24.85 18.9 25.05 19.1C25.2833 19.2667 25.4 19.5 25.4 19.8C25.4 20.6667 24.9 21.6667 23.9 22.8C22.9333 23.9333 21.5167 24.9167 19.65 25.75C17.7833 26.5833 15.5833 27 13.05 27ZM17.25 10.85V10.75C17.25 9.11667 16.8667 7.83333 16.1 6.9C15.3667 5.93333 14.3333 5.45 13 5.45C11.7 5.45 10.6667 5.93333 9.9 6.9C9.16667 7.83333 8.8 9.11667 8.8 10.75V10.85H17.25Z" fill="white"/>
<path d="M42.6875 27C38.9208 27 35.8708 26 33.5375 24C31.2042 21.9667 29.9542 19.15 29.7875 15.55L29.7375 13.55L29.7875 11.5C29.9208 7.9 31.1542 5.08333 33.4875 3.05C35.8542 1.01667 38.9208 0 42.6875 0C45.5208 0 47.9042 0.516667 49.8375 1.55C51.8042 2.55 53.2542 3.76667 54.1875 5.2C55.1542 6.6 55.6708 7.88333 55.7375 9.05C55.7708 9.38333 55.6542 9.68333 55.3875 9.95C55.1542 10.1833 54.8542 10.3 54.4875 10.3H48.1375C47.7708 10.3 47.4875 10.2167 47.2875 10.05C47.0875 9.88333 46.9042 9.63333 46.7375 9.3C46.3375 8.26667 45.8208 7.53333 45.1875 7.1C44.5875 6.66667 43.8042 6.45 42.8375 6.45C40.1042 6.45 38.6875 8.21667 38.5875 11.75L38.5375 13.65L38.5875 15.3C38.6542 17.1 39.0375 18.4333 39.7375 19.3C40.4708 20.1333 41.5042 20.55 42.8375 20.55C43.8708 20.55 44.6875 20.3333 45.2875 19.9C45.8875 19.4667 46.3708 18.7333 46.7375 17.7C46.9042 17.3667 47.0875 17.1167 47.2875 16.95C47.4875 16.7833 47.7708 16.7 48.1375 16.7H54.4875C54.8208 16.7 55.1042 16.8167 55.3375 17.05C55.6042 17.25 55.7375 17.5167 55.7375 17.85C55.7375 18.9167 55.2708 20.1667 54.3375 21.6C53.4375 23.0333 52.0042 24.3 50.0375 25.4C48.0708 26.4667 45.6208 27 42.6875 27Z" fill="white"/>
<path d="M72.5297 27C68.3964 27 65.213 26.0167 62.9797 24.05C60.7464 22.0833 59.5297 19.3167 59.3297 15.75C59.2964 15.3167 59.2797 14.5667 59.2797 13.5C59.2797 12.4333 59.2964 11.6833 59.3297 11.25C59.5297 7.71667 60.7797 4.96667 63.0797 3C65.3797 1 68.5297 0 72.5297 0C76.563 0 79.7297 1 82.0297 3C84.3297 4.96667 85.5797 7.71667 85.7797 11.25C85.813 11.6833 85.8297 12.4333 85.8297 13.5C85.8297 14.5667 85.813 15.3167 85.7797 15.75C85.5797 19.3167 84.363 22.0833 82.1297 24.05C79.8964 26.0167 76.6964 27 72.5297 27ZM72.5297 20.9C73.9964 20.9 75.0797 20.4667 75.7797 19.6C76.4797 18.7 76.8797 17.3333 76.9797 15.5C77.013 15.1667 77.0297 14.5 77.0297 13.5C77.0297 12.5 77.013 11.8333 76.9797 11.5C76.8797 9.7 76.463 8.35 75.7297 7.45C75.0297 6.55 73.963 6.1 72.5297 6.1C69.763 6.1 68.2963 7.9 68.1297 11.5L68.0797 13.5L68.1297 15.5C68.1964 17.3333 68.5797 18.7 69.2797 19.6C70.013 20.4667 71.0964 20.9 72.5297 20.9Z" fill="white"/>
<path d="M92.0461 26.5C91.6794 26.5 91.3794 26.3833 91.1461 26.15C90.9128 25.9167 90.7961 25.6167 90.7961 25.25V1.75C90.7961 1.38333 90.9128 1.08333 91.1461 0.850001C91.3794 0.616667 91.6794 0.5 92.0461 0.5H97.4961C97.8628 0.5 98.1628 0.616667 98.3961 0.850001C98.6294 1.08333 98.7461 1.38333 98.7461 1.75V3.45C99.5128 2.45 100.529 1.63333 101.796 0.999999C103.096 0.333333 104.546 0 106.146 0C109.813 0 112.346 1.43333 113.746 4.3C114.546 3.03333 115.663 2 117.096 1.2C118.529 0.4 120.063 0 121.696 0C124.429 0 126.646 0.933333 128.346 2.8C130.079 4.63333 130.946 7.38333 130.946 11.05V25.25C130.946 25.5833 130.829 25.8833 130.596 26.15C130.363 26.3833 130.063 26.5 129.696 26.5H123.896C123.529 26.5 123.213 26.3833 122.946 26.15C122.713 25.9167 122.596 25.6167 122.596 25.25V11.4C122.596 9.73333 122.246 8.53333 121.546 7.8C120.879 7.06667 119.963 6.7 118.796 6.7C117.729 6.7 116.846 7.08333 116.146 7.85C115.446 8.58333 115.096 9.76667 115.096 11.4V25.25C115.096 25.5833 114.979 25.8833 114.746 26.15C114.513 26.3833 114.213 26.5 113.846 26.5H108.046C107.679 26.5 107.379 26.3833 107.146 26.15C106.913 25.9167 106.796 25.6167 106.796 25.25V11.4C106.796 9.76667 106.429 8.58333 105.696 7.85C104.996 7.08333 104.096 6.7 102.996 6.7C101.929 6.7 101.029 7.08333 100.296 7.85C99.5961 8.58333 99.2461 9.75 99.2461 11.35V25.25C99.2461 25.5833 99.1294 25.8833 98.8961 26.15C98.6628 26.3833 98.3628 26.5 97.9961 26.5H92.0461Z" fill="white"/>
<path d="M137.847 26.5C137.48 26.5 137.18 26.3833 136.947 26.15C136.714 25.9167 136.597 25.6167 136.597 25.25V1.75C136.597 1.38333 136.714 1.08333 136.947 0.850001C137.18 0.616667 137.48 0.5 137.847 0.5H143.297C143.664 0.5 143.964 0.616667 144.197 0.850001C144.43 1.08333 144.547 1.38333 144.547 1.75V3.45C145.314 2.45 146.33 1.63333 147.597 0.999999C148.897 0.333333 150.347 0 151.947 0C155.614 0 158.147 1.43333 159.547 4.3C160.347 3.03333 161.464 2 162.897 1.2C164.33 0.4 165.864 0 167.497 0C170.23 0 172.447 0.933333 174.147 2.8C175.88 4.63333 176.747 7.38333 176.747 11.05V25.25C176.747 25.5833 176.63 25.8833 176.397 26.15C176.164 26.3833 175.864 26.5 175.497 26.5H169.697C169.33 26.5 169.014 26.3833 168.747 26.15C168.514 25.9167 168.397 25.6167 168.397 25.25V11.4C168.397 9.73333 168.047 8.53333 167.347 7.8C166.68 7.06667 165.764 6.7 164.597 6.7C163.53 6.7 162.647 7.08333 161.947 7.85C161.247 8.58333 160.897 9.76667 160.897 11.4V25.25C160.897 25.5833 160.78 25.8833 160.547 26.15C160.314 26.3833 160.014 26.5 159.647 26.5H153.847C153.48 26.5 153.18 26.3833 152.947 26.15C152.714 25.9167 152.597 25.6167 152.597 25.25V11.4C152.597 9.76667 152.23 8.58333 151.497 7.85C150.797 7.08333 149.897 6.7 148.797 6.7C147.73 6.7 146.83 7.08333 146.097 7.85C145.397 8.58333 145.047 9.75 145.047 11.35V25.25C145.047 25.5833 144.93 25.8833 144.697 26.15C144.464 26.3833 144.164 26.5 143.797 26.5H137.847Z" fill="white"/>
<path d="M72.25 27C68.1167 27 64.9333 26.0167 62.7 24.05C60.4667 22.0833 59.25 19.3167 59.05 15.75C59.0167 15.3167 59 14.5667 59 13.5C59 12.4333 59.0167 11.6833 59.05 11.25C59.25 7.71667 60.5 4.96667 62.8 3C65.1 1 68.25 0 72.25 0C76.2833 0 79.45 1 81.75 3C84.05 4.96667 85.3 7.71667 85.5 11.25C85.5333 11.6833 85.55 12.4333 85.55 13.5C85.55 14.5667 85.5333 15.3167 85.5 15.75C85.3 19.3167 84.0833 22.0833 81.85 24.05C79.6167 26.0167 76.4167 27 72.25 27ZM72.25 20.9C73.7167 20.9 74.8 20.4667 75.5 19.6C76.2 18.7 76.6 17.3333 76.7 15.5C76.7333 15.1667 76.75 14.5 76.75 13.5C76.75 12.5 76.7333 11.8333 76.7 11.5C76.6 9.7 76.1833 8.35 75.45 7.45C74.75 6.55 73.6833 6.1 72.25 6.1C69.4833 6.1 68.0167 7.9 67.85 11.5L67.8 13.5L67.85 15.5C67.9167 17.3333 68.3 18.7 69 19.6C69.7333 20.4667 70.8167 20.9 72.25 20.9Z" fill="#F34F51"/>
</svg>
